<?xml version="1.0" encoding="UTF-8"?>
<svg version="1.1" xmlns="http://www.w3.org/2000/svg" width="512" height="512">
<path d="M0 0 C0.90054108 -0.00701431 1.80108215 -0.01402863 2.72891235 -0.02125549 C5.61750351 -0.03865402 8.50588962 -0.0451074 11.39453125 -0.046875 C12.38190277 -0.04754974 13.36927429 -0.04822449 14.38656616 -0.04891968 C28.87791389 -0.03317157 42.94723376 0.41971425 57.20703125 3.203125 C58.5525708 3.44458252 58.5525708 3.44458252 59.92529297 3.69091797 C109.46556968 12.65518497 153.92796357 36.65010988 190.20703125 71.203125 C191.10542725 72.05849854 191.10542725 72.05849854 192.02197266 72.93115234 C200.36936508 80.93818658 208.01620673 89.16119067 214.90527344 98.45703125 C216.20622753 100.20204695 217.53542624 101.92208563 218.87109375 103.640625 C249.0421975 142.96010463 268.14898101 194.21603264 268.41015625 243.99609375 C268.41717056 244.89663483 268.42418488 245.7971759 268.43141174 246.7250061 C268.44881027 249.61359726 268.45526365 252.50198337 268.45703125 255.390625 C268.45804337 256.87168228 268.45804337 256.87168228 268.45907593 258.38265991 C268.44332782 272.87400764 267.990442 286.94332751 265.20703125 301.203125 C265.04605957 302.10015137 264.88508789 302.99717773 264.71923828 303.92138672 C255.75497128 353.46166343 231.76004637 397.92405732 197.20703125 434.203125 C196.35165771 435.101521 196.35165771 435.101521 195.47900391 436.01806641 C187.47196967 444.36545883 179.24896558 452.01230048 169.953125 458.90136719 C168.2081093 460.20232128 166.48807062 461.53151999 164.76953125 462.8671875 C125.45005162 493.03829125 74.19412361 512.14507476 24.4140625 512.40625 C23.51352142 512.41326431 22.61298035 512.42027863 21.68515015 512.42750549 C18.79655899 512.44490402 15.90817288 512.4513574 13.01953125 512.453125 C12.03215973 512.45379974 11.04478821 512.45447449 10.02749634 512.45516968 C-4.46385139 512.43942157 -18.53317126 511.98653575 -32.79296875 509.203125 C-33.68999512 509.04215332 -34.58702148 508.88118164 -35.51123047 508.71533203 C-85.05150718 499.75106503 -129.51390107 475.75614012 -165.79296875 441.203125 C-166.39189941 440.63287598 -166.99083008 440.06262695 -167.60791016 439.47509766 C-175.95530258 431.46806342 -183.60214423 423.24505933 -190.49121094 413.94921875 C-191.79216503 412.20420305 -193.12136374 410.48416437 -194.45703125 408.765625 C-224.628135 369.44614537 -243.73491851 318.19021736 -243.99609375 268.41015625 C-244.00310806 267.50961517 -244.01012238 266.6090741 -244.01734924 265.6812439 C-244.03474777 262.79265274 -244.04120115 259.90426663 -244.04296875 257.015625 C-244.04364349 256.02825348 -244.04431824 255.04088196 -244.04501343 254.02359009 C-244.02926532 239.53224236 -243.5763795 225.46292249 -240.79296875 211.203125 C-240.55151123 209.85758545 -240.55151123 209.85758545 -240.30517578 208.48486328 C-231.34090878 158.94458657 -207.34598387 114.48219268 -172.79296875 78.203125 C-172.22271973 77.60419434 -171.6524707 77.00526367 -171.06494141 76.38818359 C-163.05790717 68.04079117 -154.83490308 60.39394952 -145.5390625 53.50488281 C-143.7940468 52.20392872 -142.07400812 50.87473001 -140.35546875 49.5390625 C-101.03598912 19.36795875 -49.78006111 0.26117524 0 0 Z " fill="#222222" transform="translate(243.79296875,-0.203125)"/>
<path d="M0 0 C2.43120824 0.00848886 4.86003857 -0.02033838 7.29101562 -0.05200195 C21.61091473 -0.11753615 35.91270105 1.87843366 48.94726562 8.13354492 C50.05038086 8.64510132 50.05038086 8.64510132 51.17578125 9.16699219 C62.66223988 14.64543625 72.57588376 21.55585016 81.69726562 30.44604492 C80.35727065 33.45286292 78.89881271 35.44367101 76.50976562 37.69604492 C73.93980073 40.18619724 71.52839689 42.7307769 69.19726562 45.44604492 C65.87567845 49.3024001 62.34446269 52.8986192 58.69726562 56.44604492 C58.21 56.11733398 57.72273437 55.78862305 57.22070312 55.44995117 C55.67835712 54.41517721 54.13234212 53.38586404 52.58398438 52.36010742 C50.51744254 50.98986994 48.45836257 49.60835247 46.40429688 48.21948242 C32.50932629 38.93340392 18.14586294 32.82952545 1.19726562 33.00854492 C-0.31492554 33.01990479 -0.31492554 33.01990479 -1.85766602 33.03149414 C-8.95386621 33.18912356 -15.05578899 33.83417468 -21.30273438 37.44604492 C-22.03234375 37.8353418 -22.76195312 38.22463867 -23.51367188 38.62573242 C-29.8331122 42.59593842 -33.24675764 48.37018339 -35.30273438 55.44604492 C-36.91592549 67.00222243 -35.73818006 77.11050013 -29.67773438 87.13354492 C-22.47477745 94.14695035 -13.61256813 98.52182268 -4.61355591 102.75576782 C-2.56624131 103.7190978 -0.52473788 104.69393599 1.51586914 105.67138672 C7.75273069 108.65356639 14.00794911 111.59508327 20.27539062 114.51245117 C36.89622539 122.27570287 51.72730256 130.32121662 64.69726562 143.44604492 C65.83808594 144.57139648 65.83808594 144.57139648 67.00195312 145.71948242 C77.9194472 157.13135359 82.29527263 171.60607202 82.13476562 187.13354492 C82.12646729 188.18010254 82.11816895 189.22666016 82.10961914 190.30493164 C81.7510577 206.90594362 77.21785045 222.87607439 65.69726562 235.32104492 C42.12065537 257.31076795 7.70410766 257.27061057 -22.54052734 256.57788086 C-42.42016614 255.88125497 -61.99245631 251.13567666 -80.30273438 243.44604492 C-80.50595102 235.05771349 -79.94113156 227.00326759 -78.80273438 218.69604492 C-78.65964844 217.60549805 -78.5165625 216.51495117 -78.36914062 215.39135742 C-78.02053141 212.7419274 -77.66499582 210.09363654 -77.30273438 207.44604492 C-71.93590948 209.00548267 -66.63200933 210.63764428 -61.39477539 212.58984375 C-54.31602466 215.22120262 -47.18645032 217.4058908 -39.86523438 219.25854492 C-38.65988037 219.56864502 -38.65988037 219.56864502 -37.43017578 219.88500977 C-26.77585756 222.49105469 -16.23380276 222.6281335 -5.30273438 222.63354492 C-4.00078125 222.64579102 -2.69882812 222.65803711 -1.35742188 222.6706543 C11.50375758 222.69014093 24.62696904 221.0882423 35.16601562 212.98510742 C41.53454395 206.58408661 43.6881745 197.86852057 44.07226562 189.13354492 C43.89203803 180.47060533 40.73088336 171.762474 34.69726562 165.44604492 C28.78243898 160.90836069 22.30316691 157.58432388 15.57226562 154.44604492 C14.11518188 153.75490601 14.11518188 153.75490601 12.62866211 153.04980469 C6.74245107 150.27677179 0.81792161 147.59956492 -5.13476562 144.97338867 C-22.8355408 137.15263548 -39.60615819 129.36370593 -54.30273438 116.44604492 C-55.23279297 115.65713867 -55.23279297 115.65713867 -56.18164062 114.85229492 C-67.64007366 104.39359094 -73.59541697 89.41445349 -74.42749023 74.15869141 C-75.07565378 54.50176889 -72.07747281 36.53155106 -59.17773438 21.00854492 C-43.22867418 4.67384251 -22.06353434 -0.11684326 0 0 Z " fill="#FDFDFD" transform="translate(365.302734375,128.553955078125)"/>
<path d="M0 0 C60.06 0 120.12 0 182 0 C182 10.89 182 21.78 182 33 C157.91 33 133.82 33 109 33 C109 104.28 109 175.56 109 249 C97.12 249 85.24 249 73 249 C73 177.72 73 106.44 73 33 C48.91 33 24.82 33 0 33 C0 22.11 0 11.22 0 0 Z " fill="#FFFFFF" transform="translate(65,132)"/>
</svg>
